<svg width="52" height="51" viewBox="0 0 52 51" fill="none" xmlns="http://www.w3.org/2000/svg">
<path d="M25.157 51V31.5928H27.294C27.294 31.6518 27.302 31.711 27.302 31.772C27.302 38.1193 27.302 44.4669 27.302 50.8149C27.302 50.8769 27.295 50.938 27.292 51H25.157ZM11.715 42.1108C7.64506 38.5758 4.98085 33.696 4.20805 28.3608H6.37605C6.49905 28.9298 6.60604 29.4938 6.74504 30.0518C7.52028 33.2095 9.05002 36.1322 11.203 38.5688C13.8063 41.5689 17.2346 43.7373 21.061 44.8032C21.776 45.0032 22.514 45.1332 23.239 45.3032C23.285 45.3152 23.357 45.3668 23.357 45.4028C23.365 46.0928 23.357 46.7819 23.357 47.5029C19.0321 46.8839 14.984 45.0096 11.715 42.1108ZM29.108 45.3271C33.3602 44.6484 37.2858 42.6335 40.316 39.5742C43.3743 36.5384 45.388 32.6085 46.066 28.353H48.226C47.5256 33.1762 45.2863 37.6441 41.8415 41.0918C38.3967 44.5395 33.9306 46.7823 29.108 47.4868V45.3271ZM29.352 34.5962C29.352 34.5452 29.436 34.4732 29.495 34.4502C30.2405 34.1689 30.9482 33.796 31.602 33.3408C33.24 32.2156 34.4904 30.612 35.182 28.749C35.192 28.702 35.2194 28.6605 35.2587 28.6328C35.298 28.6052 35.3464 28.5935 35.394 28.6001C36.039 28.6071 36.685 28.6001 37.329 28.6001H37.483C36.934 30.5398 35.8976 32.3065 34.4726 33.7324C33.0476 35.1583 31.2814 36.1958 29.342 36.7461C29.345 36.0191 29.342 35.3081 29.352 34.6001V34.5962ZM14.972 28.6011H15.954C16.333 28.6011 16.712 28.6011 17.091 28.6011C17.1292 28.5954 17.1681 28.6046 17.1999 28.6265C17.2316 28.6484 17.2538 28.6815 17.262 28.7192C17.7021 29.9131 18.3733 31.0079 19.2373 31.9419C20.1013 32.8759 21.1411 33.6306 22.297 34.1621C22.525 34.2721 22.768 34.3521 22.997 34.4561C23.046 34.4791 23.112 34.5429 23.112 34.5889C23.119 35.2959 23.112 36.0039 23.112 36.7109C23.112 36.7209 23.102 36.7312 23.097 36.7412C21.161 36.1896 19.3981 35.1519 17.976 33.7271C16.5539 32.3022 15.5198 30.5382 14.972 28.6011ZM26.234 28.7241C25.3762 28.7212 24.5543 28.3789 23.948 27.772C23.3417 27.1651 23.0002 26.3427 22.998 25.4849C23.002 24.6273 23.345 23.8062 23.9522 23.2007C24.5594 22.5952 25.3815 22.2545 26.239 22.2529C26.6613 22.2551 27.0789 22.3414 27.4675 22.5063C27.8562 22.6713 28.2082 22.9117 28.5031 23.2139C28.7979 23.5161 29.0298 23.874 29.1851 24.2666C29.3405 24.6592 29.4163 25.0788 29.408 25.501C29.4132 25.9213 29.3351 26.3385 29.1782 26.7285C29.0213 27.1185 28.7888 27.4737 28.494 27.7734C28.1992 28.0731 27.848 28.3113 27.4607 28.4746C27.0733 28.6379 26.6574 28.7233 26.237 28.7251L26.234 28.7241ZM32.57 26.564H32.34V24.4141H51.747V26.5532C51.668 26.5532 51.59 26.5649 51.511 26.5649L32.57 26.564ZM0.748047 26.5562V24.4268H20.114V26.5562H0.748047ZM46.04 22.4658C45.5322 19.4115 44.3289 16.5151 42.523 14C40.8594 11.6593 38.72 9.6967 36.245 8.24023C34.2228 7.0398 32.0055 6.20356 29.694 5.77002L29.117 5.66211V3.48682C33.2171 4.06626 37.0733 5.78103 40.25 8.43701C44.5964 11.9985 47.4542 17.0564 48.262 22.6172C48.182 22.6172 48.128 22.625 48.072 22.625C47.462 22.625 46.85 22.625 46.24 22.625H46.231C46.108 22.628 46.062 22.5938 46.04 22.4658ZM6.26805 22.627C5.61205 22.627 4.95605 22.627 4.30005 22.627C4.27065 22.6231 4.24157 22.617 4.21305 22.6089C4.93946 17.6312 7.31069 13.0398 10.949 9.56592C14.3382 6.28732 18.6795 4.16777 23.349 3.51123V5.66113C23.049 5.71813 22.749 5.77589 22.449 5.83789C19.8469 6.36879 17.3759 7.4105 15.179 8.90283C12.1131 10.9594 9.66213 13.809 8.08705 17.1479C7.28029 18.842 6.71641 20.6416 6.41204 22.4932C6.39604 22.5882 6.37005 22.6309 6.27205 22.6309L6.26805 22.627ZM17.058 22.3809C16.413 22.3749 15.767 22.3809 15.123 22.3809H14.972C15.5234 20.4411 16.5613 18.6744 17.9873 17.2485C19.4134 15.8227 21.1802 14.785 23.12 14.2339V14.4209C23.12 15.0489 23.12 15.6772 23.12 16.3062C23.1285 16.3599 23.1163 16.4149 23.0859 16.46C23.0555 16.5051 23.0091 16.5366 22.956 16.5488C21.6558 17.0319 20.475 17.7898 19.4941 18.7705C18.5132 19.7512 17.7553 20.9318 17.272 22.2319C17.2612 22.2785 17.2341 22.3194 17.1955 22.3477C17.157 22.3759 17.1097 22.3899 17.062 22.3862L17.058 22.3809ZM35.196 22.248C34.711 20.9306 33.9441 19.7352 32.9488 18.7451C31.9535 17.755 30.754 16.9942 29.434 16.5161C29.408 16.5061 29.382 16.491 29.352 16.478V14.2412C31.2909 14.7894 33.0571 15.8248 34.4823 17.249C35.9076 18.6732 36.9444 20.4385 37.494 22.377H36.786C36.322 22.377 35.858 22.377 35.394 22.377H35.386C35.3438 22.3825 35.301 22.3724 35.2657 22.3486C35.2304 22.3249 35.2049 22.2892 35.194 22.248H35.196ZM25.167 19.3828V0H27.294V19.3818L25.167 19.3828Z" fill="white"/>
</svg>
