<svg width="24" height="18" viewBox="0 0 24 18" fill="none" xmlns="http://www.w3.org/2000/svg">
<path d="M3.2 18.001C2.38106 18.028 1.58472 17.7297 0.985082 17.1713C0.385441 16.6129 0.0312723 15.8397 0 15.021L0 2.97996C0.0315299 2.16134 0.385811 1.38849 0.985424 0.830288C1.58504 0.272087 2.38122 -0.0260757 3.2 0.000957754H20.8C21.6188 -0.0260757 22.415 0.272087 23.0146 0.830288C23.6142 1.38849 23.9685 2.16134 24 2.97996V15.021C23.9687 15.8397 23.6146 16.6129 23.0149 17.1713C22.4153 17.7297 21.6189 18.028 20.8 18.001H3.2ZM2 15.021C2.02748 15.315 2.16784 15.587 2.39159 15.7798C2.61534 15.9726 2.90509 16.0712 3.2 16.055H20.8C21.0949 16.0712 21.3847 15.9726 21.6084 15.7798C21.8322 15.587 21.9725 15.315 22 15.021V6.82996L12.606 13.796C12.4303 13.925 12.218 13.9945 12 13.9945C11.782 13.9945 11.5697 13.925 11.394 13.796L2 6.82996V15.021ZM12 11.801L22 4.38296V2.98296C21.9723 2.68906 21.8318 2.41732 21.6081 2.22473C21.3844 2.03213 21.0948 1.93366 20.8 1.94996H3.2C2.90572 1.93361 2.61652 2.03168 2.39287 2.22364C2.16922 2.4156 2.02845 2.6866 2 2.97996V4.37996L12 11.801Z" fill="#B92770"/>
</svg>
