<svg width="1700" height="192" viewBox="0 0 1700 192" fill="none" xmlns="http://www.w3.org/2000/svg">
<g opacity="0.15">
<path d="M1699.5 52.8099C1699.46 52.81 1699.42 52.8053 1699.38 52.7959L1557.8 18.0879C1464.87 -4.69567 1367.8 -4.69567 1274.87 18.0879C1228.49 29.451 1180.92 35.1976 1133.17 35.2039C1085.42 35.1976 1037.85 29.451 991.47 18.0879C898.536 -4.69563 801.474 -4.69563 708.54 18.0879C662.163 29.451 614.589 35.1976 566.84 35.2039C519.091 35.1976 471.517 29.451 425.14 18.0879C332.206 -4.69567 235.144 -4.69567 142.21 18.0879L0.617992 52.7959C0.489805 52.8261 0.354893 52.8045 0.242554 52.7358C0.130214 52.6671 0.0495188 52.5568 0.0179917 52.4289C-0.0122081 52.3009 0.00927667 52.1661 0.0777884 52.0538C0.1463 51.9414 0.256318 51.8607 0.383992 51.8289L141.967 17.1209C235.055 -5.69994 332.279 -5.69994 425.367 17.1209C471.667 28.4638 519.163 34.1993 566.833 34.2039C614.503 34.1977 662 28.4606 708.3 17.1159C801.388 -5.70498 898.612 -5.70498 991.7 17.1159C1038 28.4604 1085.5 34.1976 1133.17 34.2039C1180.83 34.1975 1228.33 28.4603 1274.63 17.1159C1367.72 -5.70494 1464.94 -5.70494 1558.03 17.1159L1699.61 51.8239C1699.73 51.8527 1699.84 51.9241 1699.91 52.0246C1699.97 52.1251 1700.01 52.2478 1699.99 52.3693C1699.98 52.4909 1699.92 52.6029 1699.83 52.6841C1699.73 52.7653 1699.62 52.8101 1699.49 52.8099H1699.5Z" fill="white"/>
<path d="M1699.5 78.7149C1699.46 78.715 1699.42 78.7104 1699.38 78.7009L1557.8 43.9929C1464.87 21.2093 1367.8 21.2093 1274.87 43.9929C1228.49 55.356 1180.92 61.1026 1133.17 61.1089C1085.42 61.1025 1037.85 55.356 991.47 43.9929C898.536 21.2094 801.474 21.2094 708.54 43.9929C662.163 55.356 614.589 61.1026 566.84 61.1089C519.091 61.1026 471.517 55.356 425.14 43.9929C332.206 21.2093 235.144 21.2093 142.21 43.9929L0.617992 78.7009C0.489805 78.7311 0.354893 78.7095 0.242554 78.6408C0.130214 78.572 0.0495188 78.4618 0.0179917 78.3339C-0.0122081 78.2059 0.00927667 78.0711 0.0777884 77.9588C0.1463 77.8465 0.256318 77.7657 0.383992 77.7339L141.967 43.0259C235.055 20.2048 332.279 20.2048 425.367 43.0259C471.667 54.37 519.163 60.1068 566.832 60.1129C614.503 60.1054 661.999 54.3669 708.3 43.0209C801.388 20.1997 898.612 20.1997 991.7 43.0209C1038 54.3649 1085.5 60.1018 1133.17 60.1079C1180.83 60.1017 1228.33 54.3649 1274.63 43.0209C1367.72 20.1998 1464.94 20.1998 1558.03 43.0209L1699.61 77.7289C1699.73 77.7577 1699.84 77.8291 1699.91 77.9296C1699.97 78.0302 1700.01 78.1528 1699.99 78.2743C1699.98 78.3959 1699.92 78.5079 1699.83 78.5891C1699.73 78.6703 1699.62 78.715 1699.49 78.7149H1699.5Z" fill="white"/>
<path d="M1699.5 108.487C1699.46 108.487 1699.42 108.482 1699.38 108.473L1557.8 73.7639C1464.87 50.9803 1367.8 50.9803 1274.87 73.7639C1228.49 85.127 1180.92 90.8736 1133.17 90.8799C1085.42 90.8736 1037.85 85.127 991.47 73.7639C898.536 50.9804 801.474 50.9804 708.54 73.7639C662.163 85.127 614.589 90.8736 566.84 90.8799C519.091 90.8736 471.517 85.127 425.14 73.7639C332.206 50.9803 235.144 50.9803 142.21 73.7639L0.617992 108.473C0.489805 108.503 0.354893 108.481 0.242554 108.413C0.130214 108.344 0.0495188 108.234 0.0179917 108.106C-0.0122081 107.978 0.00927667 107.843 0.0777884 107.731C0.1463 107.618 0.256318 107.538 0.383992 107.506L141.967 72.797C235.055 49.9761 332.279 49.9761 425.367 72.797C471.667 84.1398 519.163 89.8753 566.833 89.8799C614.503 89.8737 662 84.1366 708.3 72.792C801.388 49.971 898.612 49.971 991.7 72.792C1038 84.1364 1085.5 89.8736 1133.17 89.8799C1180.83 89.8735 1228.33 84.1364 1274.63 72.792C1367.72 49.9711 1464.94 49.9711 1558.03 72.792L1699.61 107.501C1699.73 107.53 1699.84 107.601 1699.91 107.702C1699.97 107.802 1700.01 107.925 1699.99 108.046C1699.98 108.168 1699.92 108.28 1699.83 108.361C1699.73 108.442 1699.62 108.487 1699.49 108.487H1699.5Z" fill="white"/>
<path d="M1699.5 136.324C1699.46 136.324 1699.42 136.319 1699.38 136.31L1557.8 101.601C1464.87 78.8173 1367.8 78.8173 1274.87 101.601C1228.49 112.964 1180.92 118.711 1133.17 118.717C1085.42 118.71 1037.85 112.964 991.47 101.601C898.536 78.8173 801.474 78.8173 708.54 101.601C662.163 112.964 614.589 118.711 566.84 118.717C519.091 118.711 471.517 112.964 425.14 101.601C332.206 78.8173 235.144 78.8173 142.21 101.601L0.617992 136.31C0.489805 136.34 0.354893 136.318 0.242554 136.25C0.130214 136.181 0.0495188 136.071 0.0179917 135.943C-0.0122081 135.815 0.00927667 135.68 0.0777884 135.568C0.1463 135.455 0.256318 135.375 0.383992 135.343L141.967 100.634C235.055 77.813 332.279 77.813 425.367 100.634C471.667 111.978 519.163 117.716 566.832 117.722C614.503 117.714 661.999 111.975 708.3 100.629C801.388 77.808 898.612 77.808 991.7 100.629C1038 111.973 1085.5 117.711 1133.17 117.717C1180.83 117.71 1228.33 111.973 1274.63 100.629C1367.72 77.808 1464.94 77.808 1558.03 100.629L1699.62 135.342C1699.74 135.371 1699.84 135.442 1699.91 135.543C1699.98 135.643 1700.01 135.766 1700 135.887C1699.98 136.009 1699.92 136.121 1699.83 136.202C1699.74 136.283 1699.62 136.328 1699.5 136.328L1699.5 136.324Z" fill="white"/>
<path d="M1699.5 166.098C1699.46 166.098 1699.42 166.093 1699.38 166.084L1557.8 131.373C1464.87 108.589 1367.8 108.589 1274.87 131.373C1228.49 142.736 1180.92 148.482 1133.17 148.489C1085.42 148.482 1037.85 142.736 991.47 131.373C898.536 108.589 801.474 108.589 708.54 131.373C662.163 142.736 614.589 148.482 566.84 148.489C519.091 148.482 471.517 142.736 425.14 131.373C332.206 108.589 235.144 108.589 142.21 131.373L0.617992 166.081C0.489805 166.111 0.354893 166.089 0.242554 166.021C0.130214 165.952 0.0495188 165.842 0.0179917 165.714C-0.0122081 165.586 0.00927667 165.451 0.0777884 165.339C0.1463 165.226 0.256318 165.146 0.383992 165.114L141.964 130.398C235.052 107.577 332.276 107.577 425.364 130.398C471.665 141.743 519.162 147.481 566.833 147.488C614.503 147.481 662 141.743 708.3 130.398C801.388 107.577 898.612 107.577 991.7 130.398C1038 141.742 1085.5 147.479 1133.17 147.485C1180.83 147.479 1228.33 141.742 1274.63 130.398C1367.72 107.577 1464.94 107.577 1558.03 130.398L1699.61 165.106C1699.73 165.135 1699.84 165.206 1699.91 165.307C1699.98 165.407 1700.01 165.53 1699.99 165.651C1699.98 165.773 1699.92 165.885 1699.83 165.966C1699.74 166.047 1699.62 166.092 1699.5 166.092L1699.5 166.098Z" fill="white"/>
<path d="M1699.5 192C1699.46 192 1699.42 191.995 1699.38 191.986L1557.8 157.278C1464.87 134.494 1367.8 134.494 1274.87 157.278C1228.49 168.641 1180.92 174.387 1133.17 174.394C1085.42 174.387 1037.85 168.641 991.47 157.278C898.536 134.494 801.474 134.494 708.54 157.278C662.163 168.641 614.589 174.387 566.84 174.394C519.091 174.387 471.517 168.641 425.14 157.278C332.206 134.494 235.144 134.494 142.21 157.278L0.617992 191.988C0.489805 192.018 0.354893 191.996 0.242554 191.928C0.130214 191.859 0.0495188 191.749 0.0179917 191.621C-0.0122081 191.493 0.00927667 191.358 0.0777884 191.246C0.1463 191.133 0.256318 191.053 0.383992 191.021L141.967 156.313C235.055 133.492 332.279 133.492 425.367 156.313C471.667 167.657 519.163 173.394 566.832 173.4C614.503 173.392 661.999 167.652 708.3 156.306C801.388 133.485 898.612 133.485 991.7 156.306C1038 167.65 1085.5 173.387 1133.17 173.393C1180.83 173.387 1228.33 167.65 1274.63 156.306C1367.72 133.485 1464.94 133.485 1558.03 156.306L1699.61 191.014C1699.73 191.043 1699.84 191.114 1699.91 191.215C1699.97 191.315 1700.01 191.438 1699.99 191.559C1699.98 191.681 1699.92 191.793 1699.83 191.874C1699.73 191.955 1699.62 192 1699.49 192H1699.5Z" fill="white"/>
</g>
</svg>
