<svg width="53" height="43" viewBox="0 0 53 43" fill="none" xmlns="http://www.w3.org/2000/svg">
<path d="M39.3562 42.7002C38.8449 42.4832 38.3904 42.151 38.0282 41.73C37.9187 41.5811 37.7651 41.4706 37.5891 41.4141C37.4132 41.3575 37.2239 41.3579 37.0482 41.415C36.5382 41.563 36.0322 41.7242 35.5222 41.8652C35.0122 42.0062 35.0132 41.9978 34.7362 41.4238L35.3962 41.2139C35.8962 41.0499 36.3962 40.8499 36.9122 40.7349C37.4702 40.6089 37.5492 40.2509 37.5882 39.7769C37.6122 38.9914 37.7195 38.2111 37.9082 37.4482C38.1125 36.8068 38.4437 36.2126 38.8821 35.7017C39.3205 35.1908 39.8572 34.7734 40.4602 34.4741C40.6072 34.4142 40.7578 34.363 40.9112 34.3218C40.5372 36.1218 40.5532 37.905 39.5572 39.5C40.3122 38.9 41.1032 38.344 41.8002 37.689C41.8874 37.5432 41.9415 37.3799 41.9588 37.2109C41.9761 37.042 41.9561 36.8713 41.9002 36.7109C41.5515 35.6656 41.4758 34.5486 41.6803 33.4658C41.8847 32.383 42.3624 31.3702 43.0682 30.5239C43.2252 30.3538 43.3921 30.1932 43.5682 30.043C43.7112 31.943 44.1872 33.667 43.7682 35.436L43.8862 35.499C44.3537 34.8331 44.7844 34.1423 45.1762 33.4292C45.206 33.2667 45.2025 33.0995 45.1659 32.9385C45.1293 32.7774 45.0603 32.6258 44.9632 32.4922C44.3739 31.5423 44.0289 30.4609 43.9591 29.3452C43.8893 28.2295 44.0969 27.1141 44.5632 26.0981C44.6275 25.9351 44.7281 25.7885 44.8572 25.6699C45.5732 27.3639 46.4672 28.983 46.4642 30.918C46.6842 30.283 46.8552 29.6251 47.1352 29.0181C47.3608 28.5939 47.418 28.1003 47.2955 27.6357C47.1729 27.1712 46.8797 26.77 46.4742 26.5122C45.4528 25.5246 44.8545 24.1787 44.8052 22.7588C44.7638 22.0261 44.7594 21.2922 44.7922 20.5591L45.0532 20.4922C46.1282 21.9162 47.4102 23.2102 48.0052 24.9922C48.0482 24.0922 48.1052 23.1968 48.1252 22.2988C48.1239 22.1015 48.0619 21.9095 47.9478 21.7485C47.8337 21.5876 47.6729 21.4655 47.4872 21.3989C45.1602 20.2899 44.4432 18.2589 44.2292 15.9409C44.2429 15.8195 44.2694 15.6999 44.3082 15.584C45.6032 16.693 47.0762 17.4892 47.8282 19.0352L47.9712 18.9868C47.7862 18.0468 47.6262 17.0999 47.3922 16.1709C47.3318 16.062 47.2469 15.9687 47.1441 15.8984C47.0413 15.8281 46.9236 15.7829 46.8002 15.7661C44.7442 15.5851 43.6822 14.2512 42.8882 12.5942C42.7063 12.2241 42.5645 11.8354 42.4652 11.4351C43.941 11.8238 45.3357 12.4723 46.5842 13.3501C46.2804 12.5726 45.9332 11.8128 45.5442 11.0742C45.4272 10.8742 44.9022 10.787 44.5922 10.833C43.9801 10.9258 43.3548 10.8731 42.7669 10.6792C42.179 10.4853 41.645 10.1555 41.2082 9.7168C40.741 9.25728 40.342 8.73365 40.0232 8.16113C40.2232 8.16113 40.4232 8.16113 40.6292 8.16113C41.8906 8.05471 43.1587 8.2649 44.3182 8.77295C43.9376 8.1877 43.5229 7.62531 43.0762 7.08887C42.9412 6.94287 42.4702 6.96292 42.2242 7.06592C41.3909 7.37019 40.4811 7.39447 39.6329 7.13477C38.7846 6.87506 38.0443 6.34559 37.5242 5.62695C37.4994 5.58366 37.4806 5.53706 37.4682 5.48877C37.9732 5.04077 40.2042 4.88921 41.3822 5.22021C41.2029 4.90308 40.957 4.62855 40.6615 4.41553C40.3659 4.2025 40.0277 4.05567 39.6702 3.98584C38.9722 3.8596 38.3157 3.56466 37.7579 3.12646C37.2001 2.68827 36.7581 2.12044 36.4702 1.47217C36.2773 1.05396 36.1071 0.625471 35.9602 0.188965C36.0542 0.134965 36.0882 0.0970039 36.1092 0.104004C37.4184 0.362985 38.6434 0.941544 39.6752 1.78809C39.9256 2.00462 40.1286 2.27058 40.2712 2.56934C40.4139 2.86809 40.4932 3.19303 40.5042 3.52393C40.5116 3.67046 40.5724 3.80934 40.6752 3.91406C41.2752 4.49406 41.8862 5.05677 42.4852 5.61377C41.6699 3.97993 41.4317 2.11852 41.8092 0.332031L41.9712 0.24707C42.3352 0.65607 42.7292 1.0471 43.0622 1.4751C43.9387 2.54002 44.4343 3.86729 44.4702 5.24609C44.4634 5.69732 44.3514 6.14067 44.1432 6.54102C44.0173 6.74898 43.9575 6.99023 43.9718 7.23291C43.9861 7.47559 44.0738 7.70814 44.2232 7.8999C44.6462 8.5099 45.0472 9.13386 45.5032 9.75586C45.0621 7.97944 45.3123 6.10187 46.2032 4.50293C46.3132 4.60293 46.4102 4.64712 46.4562 4.72412C47.3988 6.33561 47.8116 8.20235 47.6362 10.061C47.5465 10.5562 47.3356 11.0214 47.0222 11.415C46.9054 11.5582 46.8249 11.7273 46.7875 11.9082C46.75 12.0891 46.7568 12.2764 46.8072 12.4541C47.0382 13.1891 47.3352 13.9048 47.6372 14.6318C47.5555 13.6952 47.6793 12.7525 47.9998 11.8687C48.3204 10.9848 48.83 10.1816 49.4932 9.51514C49.6559 9.93535 49.7758 10.3707 49.8512 10.8149C49.9426 12.0176 49.9676 13.2247 49.9262 14.4302C49.8928 14.8546 49.7745 15.2681 49.5783 15.646C49.3821 16.0239 49.1121 16.3583 48.7842 16.6299C48.5948 16.7988 48.4546 17.0158 48.3784 17.2578C48.3022 17.4999 48.2928 17.7579 48.3512 18.0049C48.4512 18.7049 48.5042 19.4052 48.6072 20.1372C48.7767 19.1941 49.137 18.2955 49.6661 17.4966C50.1952 16.6977 50.882 16.0153 51.6842 15.4912C51.7414 15.6944 51.7832 15.9013 51.8092 16.1108C51.8832 17.7689 51.5241 19.4179 50.7672 20.895C50.6231 21.2236 50.4104 21.5176 50.1434 21.7573C49.8765 21.9971 49.5614 22.1771 49.2192 22.2852C48.7842 22.4112 48.7412 22.7849 48.7092 23.1289C48.6192 24.0659 48.5602 25.0061 48.4912 25.9351C48.7772 25.5151 49.0572 25.0568 49.3842 24.6348C50.0947 23.7095 51.0531 23.0052 52.1482 22.603C52.3117 22.5615 52.4795 22.5394 52.6482 22.5371V23.1431C52.1802 24.1981 51.7552 25.2738 51.2272 26.2998C50.9715 26.7811 50.6097 27.1982 50.1692 27.519C49.7288 27.8265 49.2251 28.0316 48.6952 28.1191C48.5361 28.1237 48.3815 28.1728 48.2492 28.2612C48.1169 28.3497 48.0122 28.4739 47.9472 28.6191C47.5102 29.7251 47.1102 30.843 46.6412 32.106C47.235 31.3997 47.9857 30.8421 48.8333 30.4775C49.681 30.1129 50.6021 29.9513 51.5232 30.0059C51.4071 30.4436 51.2332 30.864 51.0062 31.2559C50.3798 32.094 49.6768 32.8723 48.9062 33.5801C48.5269 33.9083 48.0689 34.1322 47.577 34.23C47.085 34.3278 46.5761 34.2963 46.1002 34.1382C45.9488 34.1326 45.7981 34.1615 45.6596 34.2227C45.521 34.2838 45.3981 34.3756 45.3002 34.4912C44.7272 35.2012 44.2232 35.9658 43.6462 36.7788C44.4687 36.347 45.3829 36.1191 46.3118 36.1143C47.2407 36.1094 48.1572 36.3278 48.9842 36.751C48.7341 37.072 48.4593 37.3728 48.1622 37.6509C47.056 38.6454 45.6197 39.1936 44.1322 39.189C43.6078 39.0818 43.0978 38.914 42.6122 38.689C42.3592 38.614 42.0002 38.4891 41.8322 38.6011C41.0952 39.0791 40.4112 39.6329 39.6382 40.2139C40.5441 40.0745 41.47 40.1463 42.3436 40.4238C43.2172 40.7014 44.0148 41.1773 44.6742 41.814C44.4715 42.0057 44.2493 42.1754 44.0112 42.3208C43.119 42.7494 42.1448 42.9805 41.1552 42.998C40.5431 42.9998 39.935 42.8992 39.3562 42.7002ZM9.33318 42.355C9.0857 42.2144 8.85143 42.0519 8.6332 41.8691C9.26715 41.2189 10.043 40.7241 10.9001 40.4238C11.7571 40.1235 12.672 40.0259 13.5732 40.1382C13.2662 39.9312 12.9532 39.7381 12.6562 39.5161C12.3064 39.2171 11.9391 38.9393 11.5562 38.6841C11.3442 38.5631 10.9242 38.4909 10.7812 38.6089C10.4023 38.9088 9.95536 39.111 9.47985 39.1968C9.00433 39.2826 8.51498 39.2496 8.05519 39.1011C6.66725 38.8382 5.41395 38.1008 4.51018 37.0151C4.45208 36.9248 4.399 36.831 4.35118 36.7349C5.167 36.3147 6.07264 36.0993 6.99025 36.1064C7.90786 36.1136 8.81001 36.3431 9.61919 36.7759C9.02719 35.9469 8.48819 35.154 7.90419 34.395C7.80725 34.2545 7.6637 34.1528 7.49898 34.1079C7.33426 34.0631 7.15899 34.0779 7.0042 34.1499C6.64346 34.2694 6.26058 34.3069 5.88356 34.2593C5.50655 34.2117 5.14492 34.0804 4.82518 33.875C3.54893 33.1427 2.54655 32.014 1.9702 30.6602C1.89576 30.4465 1.83758 30.2273 1.79619 30.0049C2.70742 29.9542 3.61792 30.1163 4.45558 30.4785C5.29325 30.8408 6.03504 31.3931 6.62218 32.0918C6.16118 30.8458 5.7692 29.7419 5.3402 28.6509C5.29211 28.4857 5.18682 28.3432 5.0432 28.2485C4.89957 28.1538 4.72697 28.1129 4.5562 28.1338C4.27226 28.1429 3.98969 28.0909 3.72774 27.981C3.46579 27.871 3.2306 27.7061 3.03819 27.4971C1.7764 26.2777 0.939037 24.6857 0.649187 22.9551C0.63712 22.795 0.63712 22.6342 0.649187 22.4741C1.54796 22.7361 2.38104 23.1853 3.09358 23.7925C3.80612 24.3997 4.38196 25.1512 4.78319 25.9971C4.71219 25.0521 4.64719 24.141 4.57619 23.23C4.58451 22.9955 4.51464 22.7651 4.37761 22.5747C4.24058 22.3843 4.04416 22.2448 3.8192 22.1782C3.35406 21.9713 2.96376 21.6261 2.70119 21.1899C1.76443 19.6139 1.33308 17.7886 1.4652 15.96C1.48969 15.8013 1.52646 15.6451 1.57518 15.4922C2.37836 16.013 3.06809 16.6905 3.60301 17.4844C4.13794 18.2783 4.50704 19.1718 4.68819 20.1118C4.77519 19.2718 4.8882 18.4328 4.9312 17.5908C4.94052 17.3055 4.8362 17.0282 4.64119 16.8198C3.24119 15.5628 3.13017 13.9329 3.24617 12.2559C3.33412 11.4559 3.46769 10.6617 3.6462 9.87695C3.6622 9.78795 3.7462 9.71115 3.8272 9.57715C4.4767 10.2424 4.97644 11.0388 5.29292 11.9131C5.60941 12.7873 5.73532 13.7191 5.66219 14.646C5.93819 13.878 6.26218 13.122 6.46218 12.335C6.53118 12.064 6.32719 11.7141 6.21419 11.4131C5.93813 10.9211 5.73214 10.3932 5.60219 9.84424C5.49688 8.15299 5.86204 6.46562 6.65718 4.96924C6.73918 4.81124 6.85719 4.6692 7.02019 4.4292C7.93516 6.05041 8.2102 7.95522 7.79119 9.76904C8.27219 9.04004 8.77918 8.3272 9.21718 7.5752C9.2781 7.45645 9.31114 7.32533 9.31374 7.19189C9.31634 7.05846 9.28845 6.9262 9.23219 6.80518C8.97496 6.37704 8.81826 5.89593 8.77391 5.39844C8.72957 4.90095 8.79873 4.39998 8.97618 3.93311C9.3842 2.45914 10.2383 1.14762 11.4212 0.178223C11.8373 2.00322 11.612 3.91589 10.7832 5.59424C11.3932 5.02624 12.0372 4.43501 12.6702 3.83301C12.7339 3.75633 12.7668 3.65869 12.7622 3.55908C12.7711 3.17675 12.8673 2.8013 13.0436 2.46191C13.2199 2.12253 13.4715 1.8282 13.7792 1.60107C14.8522 0.863516 16.0463 0.319985 17.3072 -0.00488281C17.1234 0.931455 16.7042 1.80562 16.0892 2.53516C15.367 3.33946 14.3965 3.87881 13.3322 4.06787C12.7431 4.30908 12.2192 4.68607 11.8032 5.16797C13.1902 4.72997 14.4832 5.12386 15.9032 5.35986C15.59 5.87412 15.1656 6.31184 14.6612 6.64062C14.1568 6.96941 13.5851 7.18082 12.9882 7.25977C12.3964 7.31148 11.8001 7.25393 11.2292 7.08984C10.3842 6.86184 10.3072 6.83711 9.78618 7.55811C9.55018 7.88811 9.3252 8.22611 9.0952 8.55811C9.0492 8.62711 9.01119 8.70097 8.89519 8.89697C10.2952 8.06497 11.7362 8.15206 13.1832 8.06006C13.1832 8.16806 13.2082 8.24692 13.1832 8.29492C12.8404 8.97525 12.3379 9.56227 11.7186 10.0059C11.0992 10.4494 10.3816 10.7362 9.62718 10.8418C9.23443 10.8614 8.84071 10.8406 8.4522 10.7798C8.25951 10.7392 8.05857 10.7725 7.88927 10.873C7.71997 10.9736 7.59467 11.1346 7.53819 11.3232C7.28219 11.9972 6.97518 12.6518 6.72118 13.3428C7.88318 12.3068 9.37018 11.9689 10.7212 11.3569L10.8492 11.4668C10.6672 11.8868 10.5032 12.3171 10.2992 12.7251C9.91435 13.6759 9.25586 14.4908 8.40718 15.0669C7.92129 15.3429 7.3953 15.5411 6.84819 15.6548C6.01619 15.8288 5.87718 15.8911 5.71218 16.7031C5.55348 17.4651 5.43467 18.2345 5.35619 19.0088C6.16719 17.4908 7.64018 16.6848 8.87618 15.6318L9.0432 15.688C8.9822 16.188 8.95617 16.699 8.85417 17.188C8.61315 18.6392 7.84025 19.9485 6.68617 20.8608C6.41944 21.0447 6.13584 21.2029 5.83919 21.333C5.60845 21.4229 5.41331 21.5856 5.28337 21.7964C5.15344 22.0072 5.09579 22.2545 5.11919 22.501C5.17019 23.323 5.2082 24.1458 5.3062 24.9888C5.8292 23.2048 7.12419 21.9248 8.17119 20.4888L8.35219 20.5059C8.40319 20.9359 8.4912 21.3659 8.5002 21.7979C8.55947 23.1045 8.22915 24.3995 7.5512 25.5181C7.20755 26.0199 6.81277 26.4844 6.37319 26.9048C6.146 27.0783 5.98206 27.322 5.90654 27.5977C5.83103 27.8733 5.84812 28.1661 5.95519 28.4312C6.27219 29.2372 6.50119 30.0752 6.81819 30.8892C6.79019 28.9822 7.67819 27.3591 8.31819 25.6641L8.5002 25.6362C8.70662 26.0951 8.88525 26.5656 9.03517 27.0459C9.30584 27.9448 9.38014 28.8916 9.25298 29.8218C9.12582 30.7519 8.80018 31.6437 8.29817 32.437C8.1262 32.6484 8.03484 32.914 8.04033 33.1865C8.04582 33.459 8.14781 33.7205 8.32817 33.9248C8.71217 34.4088 9.02818 34.9459 9.42818 35.4399C9.06518 33.6549 9.54619 31.9348 9.66619 30.0518C9.83167 30.1649 9.98664 30.2931 10.1292 30.4341C10.8557 31.2748 11.35 32.2904 11.5633 33.3809C11.7766 34.4713 11.7014 35.5984 11.3452 36.6509C11.2377 36.8727 11.2153 37.1261 11.2822 37.3633C11.3491 37.6005 11.5007 37.805 11.7082 37.938C12.3922 38.425 13.0412 38.96 13.7352 39.438C12.9505 37.8474 12.5077 36.11 12.4352 34.3379C13.0502 34.5307 13.6025 34.8841 14.0352 35.3618C14.5627 35.8648 14.9805 36.4719 15.2623 37.144C15.5442 37.8162 15.6841 38.5393 15.6732 39.2681C15.6582 40.4741 15.6732 40.4842 16.8332 40.8892C17.3752 41.0782 17.9332 41.2212 18.4992 41.3892C18.3822 41.8192 18.2092 42.0271 17.7572 41.8691C17.2572 41.6941 16.7412 41.5602 16.2342 41.4072C16.0547 41.3253 15.8509 41.3138 15.6635 41.3755C15.4761 41.4372 15.3189 41.5677 15.2232 41.7402C15.0297 42.0233 14.781 42.2638 14.4919 42.4482C14.2028 42.6326 13.8794 42.7569 13.5412 42.813C13.0739 42.9161 12.5968 42.9687 12.1182 42.9692C11.1563 42.9688 10.2061 42.759 9.33318 42.355ZM18.5542 32.835C18.3933 32.6567 18.2708 32.4473 18.194 32.2197C18.1173 31.9922 18.0881 31.7515 18.1082 31.5122V31.4512L18.4082 29.751C18.5675 28.8596 18.7269 27.9652 18.8862 27.0679C18.9272 26.8379 18.9702 26.6099 19.0142 26.3799C19.1082 25.8799 19.1962 25.4038 19.2652 24.9258C17.7422 23.4748 16.1802 22.0141 14.6652 20.6001L14.5762 20.5171C14.2798 20.3015 14.0589 19.9981 13.9445 19.6499C13.8302 19.3017 13.8283 18.9265 13.9392 18.5771C14.0701 18.2518 14.2937 17.9718 14.5822 17.7725C14.8708 17.5732 15.2116 17.4633 15.5622 17.4561L15.6282 17.4482C16.5542 17.3222 17.4962 17.19 18.4052 17.064C19.6132 16.895 20.8622 16.7212 22.0912 16.5562C22.7522 15.2442 23.4352 13.9188 24.0912 12.6348C24.3945 12.0441 24.6975 11.4535 25.0002 10.8628C25.1263 10.5343 25.3467 10.2504 25.6337 10.0469C25.9207 9.84332 26.2615 9.7296 26.6132 9.71924C26.9646 9.72898 27.3054 9.84264 27.5923 10.0459C27.8792 10.2492 28.0994 10.5325 28.2252 10.8608L28.2322 10.8711C28.5409 11.4751 28.8505 12.0785 29.1612 12.6812C29.8142 13.9502 30.4892 15.2611 31.1432 16.5591C32.3262 16.7201 33.5262 16.8859 34.6882 17.0459C35.6795 17.1839 36.6702 17.3213 37.6602 17.458H37.6672C38.0208 17.4631 38.3649 17.5737 38.6554 17.7754C38.9459 17.977 39.1697 18.2603 39.2982 18.5898C39.4044 18.9347 39.4014 19.3043 39.2897 19.6475C39.1781 19.9906 38.9631 20.2906 38.6742 20.5068C38.0442 21.0942 37.4155 21.6829 36.7882 22.2729C35.8642 23.1409 34.9092 24.0389 33.9622 24.9189C34.3692 27.0699 34.7452 29.1959 35.0812 31.2349C35.1414 31.5703 35.1079 31.9158 34.9844 32.2334C34.8609 32.551 34.6522 32.8286 34.3812 33.0352C34.1113 33.19 33.8042 33.2674 33.4932 33.2598C33.1638 33.262 32.8381 33.1903 32.5402 33.0498C30.8172 32.2078 28.9312 31.2599 26.6122 30.0669C24.6072 31.0989 22.5622 32.1289 20.6522 33.0879C20.3586 33.2409 20.0332 33.3231 19.7022 33.3271C19.4875 33.3273 19.275 33.2838 19.0776 33.1992C18.8803 33.1146 18.7022 32.9905 18.5542 32.835ZM25.8802 13.5542C25.2152 14.8462 24.5292 16.181 23.8652 17.499C23.7366 17.7821 23.5361 18.0266 23.2836 18.208C23.0311 18.3894 22.7355 18.5016 22.4262 18.5332C21.1802 18.7002 19.9152 18.8779 18.6912 19.0479C17.9052 19.1559 17.0912 19.2699 16.2912 19.3799C17.7532 20.7469 19.2562 22.1551 20.7252 23.5571C20.9196 23.7379 21.0705 23.9605 21.1666 24.208C21.2628 24.4555 21.3016 24.7212 21.2802 24.9858C21.2012 25.5858 21.0902 26.1809 20.9802 26.7539C20.9392 26.9769 20.8962 27.1999 20.8572 27.4229C20.6982 28.3179 20.5392 29.214 20.3792 30.105L20.2072 31.0752C22.0072 30.1752 23.9072 29.2139 25.7672 28.2559C26.0315 28.1126 26.3266 28.0353 26.6272 28.0308C26.925 28.0346 27.2174 28.1109 27.4792 28.2529C29.6682 29.3799 31.4032 30.2532 33.0372 31.0532C32.7192 29.1532 32.3672 27.1829 31.9902 25.1909C31.9219 24.8841 31.9388 24.5645 32.039 24.2666C32.1393 23.9687 32.3192 23.704 32.5592 23.501C33.5192 22.61 34.4912 21.696 35.4312 20.814C35.9419 20.3346 36.4529 19.8556 36.9642 19.377L34.4242 19.0249C33.2292 18.8589 31.9952 18.6869 30.7812 18.5249C30.4884 18.4933 30.2088 18.3867 29.9693 18.2153C29.7298 18.044 29.5386 17.8137 29.4142 17.5469C28.7482 16.2289 28.0602 14.8902 27.3942 13.5972L26.6262 12.0972L25.8802 13.5542Z" fill="white"/>
</svg>
