<svg width="46" height="53" viewBox="0 0 46 53" fill="none" xmlns="http://www.w3.org/2000/svg">
<path d="M19.0122 52.5657C18.8054 52.4559 18.6367 52.286 18.5283 52.0784C18.42 51.8708 18.3771 51.6351 18.4053 51.4026C18.4133 49.8026 18.4053 48.2029 18.4053 46.5969V45.9968C15.5174 45.4745 12.7448 44.4446 10.2162 42.9548C7.65683 41.4908 5.46462 39.4629 3.80591 37.0252C2.14721 34.5874 1.06559 31.8036 0.643194 28.8855C0.392194 27.3975 0.354291 25.8725 0.243291 24.3635C0.214136 24.1199 0.271091 23.8738 0.404424 23.6677C0.537757 23.4617 0.739041 23.3088 0.973272 23.2356C1.19317 23.1521 1.43475 23.1454 1.65894 23.2166C1.88313 23.2877 2.07676 23.4327 2.20826 23.6277C2.32953 23.8544 2.41683 24.0978 2.46729 24.3499C3.27272 28.0088 5.46255 31.2141 8.57825 33.2947C11.0445 34.8155 13.9216 35.5343 16.8132 35.3518C17.3252 35.3368 17.8362 35.3055 18.4022 35.2805V34.6609C18.4022 33.0259 18.4022 31.3887 18.4022 29.7527C18.3727 29.5207 18.4142 29.2852 18.5214 29.0774C18.6285 28.8696 18.7961 28.6991 19.0022 28.5886C19.2126 28.4863 19.4488 28.4494 19.6804 28.4822C19.9121 28.515 20.1286 28.616 20.3023 28.7727C25.3023 32.3447 30.3053 35.9131 35.3113 39.4778C35.5008 39.5692 35.6608 39.7118 35.773 39.8899C35.8851 40.068 35.9448 40.2742 35.9453 40.4846C35.9458 40.6951 35.8871 40.9012 35.7759 41.0798C35.6646 41.2585 35.5054 41.4025 35.3163 41.4949C30.3163 45.1249 25.3122 48.7517 20.3042 52.3757C20.0735 52.5652 19.7883 52.6758 19.4902 52.6917C19.3231 52.6884 19.1592 52.6452 19.0122 52.5657ZM3.88428 32.4807C5.16275 35.7446 7.42442 38.5304 10.3562 40.4519C13.0538 42.2582 16.1196 43.4413 19.3312 43.9158C20.3312 44.0678 20.5862 44.3666 20.5892 45.3806C20.5892 46.1556 20.5892 46.9308 20.5892 47.7068V49.4675L32.9773 40.4929L20.5912 31.6609C20.5912 33.1679 20.5912 34.5275 20.5912 35.8855C20.5912 36.9305 20.2912 37.3018 19.2362 37.3538C17.694 37.4802 16.1455 37.5137 14.5992 37.4539C10.7697 37.2582 7.16747 35.5767 4.55823 32.7669C4.29423 32.4879 4.04023 32.1988 3.78223 31.9148C3.76746 32.108 3.80218 32.3018 3.88318 32.4778L3.88428 32.4807ZM36.9232 39.7307C36.813 39.6163 36.7277 39.4803 36.6726 39.3313C36.6176 39.1823 36.594 39.0236 36.6034 38.865C36.6128 38.7064 36.6549 38.5514 36.7272 38.4099C36.7994 38.2684 36.9002 38.1433 37.0232 38.0427C37.7992 37.1787 38.5552 36.2976 39.3232 35.4255L39.2233 35.2595H36.8383C35.6623 35.2595 34.4883 35.2498 33.3123 35.2678C33.0998 35.2734 32.8935 35.3403 32.7183 35.4607C32.5421 35.6125 32.3217 35.7033 32.0897 35.7195C31.8578 35.7357 31.6268 35.6763 31.4313 35.5505C31.229 35.4307 31.0732 35.2459 30.9895 35.0261C30.9058 34.8064 30.8989 34.5647 30.9702 34.3406C31.2622 33.0686 31.6182 31.8068 31.8342 30.5208C32.1112 28.8628 32.2782 27.1867 32.5012 25.4607H23.8123C23.8123 26.2067 23.8123 26.9607 23.8123 27.7097C23.8123 27.9347 23.8232 28.1586 23.8052 28.3816C23.7947 28.6676 23.6717 28.9378 23.4629 29.1336C23.2541 29.3293 22.9763 29.4346 22.6902 29.4265C22.4126 29.4189 22.1491 29.3023 21.9569 29.1018C21.7647 28.9014 21.6592 28.6334 21.6632 28.3557C21.6432 27.5807 21.6563 26.8046 21.6563 26.0296V25.4475H13.0933C13.1313 26.0595 13.1242 26.6766 13.2162 27.2766C13.5062 29.1446 13.8213 31.0098 14.1493 32.8718C14.2823 33.6238 14.0212 34.1965 13.4092 34.3425C12.7422 34.5015 12.2402 34.1428 12.0492 33.3748C11.4463 30.8987 11.0763 28.3719 10.9442 25.8269C10.9382 25.7099 10.9233 25.5937 10.9063 25.4197H10.3342C8.35823 25.4197 6.38323 25.4197 4.40723 25.4197C4.14888 25.449 3.88835 25.388 3.66968 25.2473C3.45101 25.1066 3.28768 24.895 3.20728 24.6477C3.15592 24.4875 3.14262 24.3174 3.16846 24.1511C3.1943 23.9849 3.25852 23.8273 3.35608 23.6902C3.45365 23.5531 3.58185 23.4404 3.73047 23.3616C3.8791 23.2827 4.04408 23.2395 4.21229 23.2356C4.73729 23.1976 5.26729 23.2229 5.79529 23.2229H10.7653C11.0133 20.5999 11.2552 18.0229 11.5012 15.4109H10.9012C8.77225 15.4109 6.64319 15.4217 4.51319 15.3987C4.3574 15.3773 4.19928 15.4158 4.07056 15.5061C3.94184 15.5964 3.85208 15.7317 3.81922 15.8855C3.18566 17.5412 2.75817 19.2685 2.54627 21.0286C2.54313 21.2974 2.44372 21.5563 2.26612 21.7581C2.08852 21.9599 1.84448 22.0914 1.57825 22.1287C1.34707 22.1622 1.11141 22.1149 0.911016 21.9949C0.710625 21.8748 0.557793 21.6891 0.478277 21.4695C0.399607 21.1543 0.38458 20.8267 0.434209 20.5056C0.674339 18.4697 1.20928 16.4798 2.02222 14.5979C5.27922 7.23691 10.8222 2.67772 18.6332 1.10572C23.4155 0.197626 28.3638 0.883835 32.7184 3.05934C37.073 5.23484 40.5934 8.77938 42.7393 13.1487C44.417 16.4089 45.2742 20.0292 45.2366 23.6956C45.1989 27.3619 44.2675 30.9637 42.5232 34.1887C41.4896 36.1876 40.146 38.0101 38.5422 39.5886C38.4252 39.7194 38.2833 39.8256 38.1249 39.9011C37.9664 39.9767 37.7946 40.02 37.6193 40.0286C37.3568 40.0246 37.1074 39.9177 36.9232 39.7307ZM40.3232 33.0847C40.6462 33.0847 40.7643 32.9176 40.8843 32.6716C41.7509 30.9137 42.3674 29.0432 42.7162 27.1145C42.8162 26.5695 42.8722 26.0146 42.9542 25.4216C40.2072 25.4216 37.5542 25.4218 34.9032 25.4158C34.5782 25.4158 34.5653 25.5956 34.5503 25.8416C34.5063 26.5616 34.4812 27.2868 34.3832 27.9998C34.1522 29.6648 33.8832 31.3247 33.6152 33.0447C33.6898 33.0597 33.7653 33.0692 33.8412 33.0735H36.9242C38.0575 33.0762 39.1899 33.0801 40.3232 33.0847ZM34.2842 15.4109C34.1897 15.4138 34.0956 15.4224 34.0022 15.4368C34.2462 18.0368 34.4912 20.6106 34.7352 23.1946H43.0002C43.0162 23.1231 43.0272 23.0508 43.0332 22.9778C42.9897 20.4789 42.4771 18.0106 41.5222 15.7009C41.4665 15.6184 41.3922 15.55 41.3054 15.5012C41.2186 15.4524 41.1217 15.4244 41.0222 15.4197C39.7982 15.4097 38.5742 15.4055 37.3502 15.4075L34.2842 15.4109ZM13.0692 23.1878H21.6172V15.4417H13.8252C13.3062 17.9909 13.0532 20.5872 13.0702 23.1887L13.0692 23.1878ZM23.8552 23.1819H32.4392C32.4512 20.5778 32.1928 17.9792 31.6682 15.4285H23.8552V23.1819ZM29.8073 5.02076C31.3879 7.33855 32.5427 9.91968 33.2173 12.6428C33.2259 12.7367 33.254 12.8277 33.2999 12.9099C33.3459 12.9922 33.4086 13.0638 33.484 13.1204C33.5594 13.1769 33.6458 13.217 33.7377 13.238C33.8295 13.2591 33.9247 13.2609 34.0172 13.2429C35.9062 13.2129 37.7983 13.2307 39.6873 13.2307H40.3612C37.8401 8.81443 33.7769 5.48466 28.9513 3.88063C29.2993 4.33963 29.5633 4.67776 29.8073 5.02076ZM11.5162 13.2395C11.6049 13.2557 11.6959 13.2536 11.7836 13.2327C11.8712 13.2118 11.9535 13.1729 12.0253 13.1184C12.097 13.064 12.1567 12.9951 12.2004 12.9163C12.2442 12.8375 12.2709 12.7506 12.2792 12.6609C13.0358 9.54634 14.4404 6.6259 16.4013 4.09059C16.4243 4.06159 16.4192 4.01073 16.4292 3.95973C12.6352 4.72273 6.37821 9.85979 5.18421 13.2278C6.34321 13.2278 7.48425 13.2278 8.62525 13.2278C9.59025 13.2228 10.5542 13.2265 11.5162 13.2395ZM21.1043 13.2395C21.5683 13.2465 21.6673 13.0956 21.6653 12.6546C21.6473 9.62355 21.6552 6.59468 21.6542 3.56568C21.6542 3.41268 21.6412 3.26553 21.6312 3.03053C21.3372 3.13053 21.0783 3.19745 20.8373 3.30445C19.6703 3.85011 18.6582 4.67904 17.8932 5.71559C16.4628 7.6093 15.3865 9.74612 14.7162 12.0227C14.5952 12.3937 14.4912 12.7675 14.3622 13.1985C14.6002 13.2135 14.7623 13.2297 14.9263 13.2297H16.7433H18.2603C19.2093 13.2237 20.1562 13.2256 21.1052 13.2376L21.1043 13.2395ZM23.8462 13.1956H31.1083C31.0811 13.0336 31.0433 12.8736 30.9952 12.7166C30.4782 11.3536 30.0242 9.95993 29.4192 8.63893C28.6519 6.84884 27.4569 5.27401 25.9392 4.05348C25.3331 3.55327 24.615 3.2073 23.8462 3.04469V13.1956Z" fill="white"/>
</svg>
