<svg width="18" height="17" viewBox="0 0 18 17" fill="none" xmlns="http://www.w3.org/2000/svg">
<path d="M16.293 16.7071L12.193 12.6071C10.7782 13.6737 9.01196 14.1646 7.24975 13.9813C5.48753 13.7979 3.86021 12.9537 2.69535 11.6187C1.5305 10.2838 0.914608 8.55709 0.971654 6.78628C1.0287 5.01546 1.75445 3.332 3.00281 2.07477C4.25117 0.817533 5.92945 0.0798799 7.69982 0.010294C9.47018 -0.0592918 11.2012 0.544357 12.5444 1.69973C13.8876 2.8551 14.7432 4.4764 14.9391 6.23727C15.1349 7.99815 14.6565 9.76785 13.6 11.1901L17.7 15.2901C17.7955 15.3824 17.8717 15.4927 17.9241 15.6147C17.9765 15.7367 18.0041 15.868 18.0052 16.0007C18.0064 16.1335 17.9811 16.2652 17.9308 16.3881C17.8805 16.511 17.8063 16.6226 17.7124 16.7165C17.6185 16.8104 17.5068 16.8847 17.3839 16.935C17.2611 16.9852 17.1294 17.0105 16.9966 17.0094C16.8638 17.0082 16.7326 16.9806 16.6106 16.9282C16.4886 16.8758 16.3782 16.7996 16.286 16.7041L16.293 16.7071ZM3 7.00013C3 7.98904 3.29324 8.95574 3.84265 9.77798C4.39205 10.6002 5.17295 11.2411 6.08658 11.6195C7.00021 11.998 8.00554 12.097 8.97545 11.9041C9.94535 11.7111 10.8363 11.2349 11.5355 10.5357C12.2348 9.8364 12.711 8.94549 12.9039 7.97558C13.0968 7.00568 12.9978 6.00034 12.6194 5.08671C12.241 4.17308 11.6001 3.39219 10.7778 2.84278C9.9556 2.29338 8.9889 2.00013 8 2.00013C6.67432 2.00145 5.40332 2.52866 4.46592 3.46606C3.52853 4.40345 3.00132 5.67445 3 7.00013Z" fill="#504E4A"/>
</svg>
