<svg width="27" height="27" viewBox="0 0 27 27" fill="none" xmlns="http://www.w3.org/2000/svg">
<path d="M3.95506 23.0461C1.44975 20.509 0.0499014 17.0837 0.0611019 13.5181C0.0723023 9.95255 1.49364 6.53619 4.01484 4.01486C6.53604 1.49352 9.95233 0.072003 13.5179 0.0606158C17.0835 0.0492286 20.5088 1.4489 23.0461 3.95408C25.5514 6.4912 26.9512 9.91642 26.94 13.482C26.9288 17.0476 25.5075 20.464 22.9863 22.9853C20.4651 25.5066 17.0488 26.9282 13.4832 26.9395C9.91761 26.9509 6.49231 25.5513 3.95506 23.0461ZM5.36906 5.36908C4.28806 6.43401 3.42851 7.70235 2.83994 9.10101C2.25137 10.4997 1.94543 12.001 1.93975 13.5184C1.93407 15.0358 2.22876 16.5394 2.80684 17.9424C3.38491 19.3455 4.23494 20.6202 5.30794 21.6932C6.38094 22.7662 7.65569 23.6162 9.05871 24.1943C10.4617 24.7724 11.9653 25.0671 13.4827 25.0614C15.0002 25.0557 16.5015 24.7498 17.9001 24.1612C19.2988 23.5726 20.5671 22.7131 21.6321 21.6321C22.7131 20.5671 23.5726 19.2988 24.1612 17.9001C24.7498 16.5015 25.0557 15.0002 25.0614 13.4827C25.0671 11.9653 24.7724 10.4617 24.1943 9.05872C23.6162 7.6557 22.7662 6.38095 21.6932 5.30796C20.6202 4.23496 19.3454 3.38493 17.9424 2.80685C16.5394 2.22877 15.0358 1.93408 13.5184 1.93977C12.001 1.94545 10.4996 2.25139 9.10099 2.83995C7.70234 3.42852 6.43399 4.28807 5.36906 5.36908ZM17.6781 16.8111L13.0531 14.5001C12.8861 14.4166 12.7458 14.2881 12.648 14.1291C12.5503 13.97 12.499 13.7868 12.5001 13.6001V6.66708C12.5001 6.40186 12.6054 6.14751 12.793 5.95997C12.9805 5.77243 13.2348 5.66708 13.5001 5.66708C13.7653 5.66708 14.0196 5.77243 14.2072 5.95997C14.3947 6.14751 14.5001 6.40186 14.5001 6.66708V12.9861L18.5731 15.0231C18.6935 15.08 18.8014 15.1604 18.8903 15.2596C18.9792 15.3588 19.0474 15.4748 19.0909 15.6007C19.1344 15.7266 19.1523 15.8599 19.1435 15.9929C19.1348 16.1258 19.0996 16.2556 19.0399 16.3748C18.9803 16.4939 18.8975 16.5999 18.7963 16.6866C18.6951 16.7733 18.5777 16.8388 18.4508 16.8795C18.3239 16.9201 18.1902 16.935 18.0575 16.9233C17.9248 16.9115 17.7958 16.8734 17.6781 16.8111Z" fill="#B92770"/>
</svg>
